<svg xmlns="http://www.w3.org/2000/svg" fill="none" viewBox="0 0 211 28"><path fill="#A079FF" d="M6.92 14.6c.64-.2 1.67-.49 2.86-.56-.71-1.8-.89-3.37-.75-4.77.16-1.62.73-2.97 1.29-4.11l.34-.7c.16-.3.3-.6.44-.9.22-.48.4-.91.48-1.32.08-.4.08-.74-.02-1.08-.1-.34-.3-.7-.7-1.1a1.67 1.67 0 0 0-1.54.37L4.16 5.07c-.29.26-.48.6-.53.99L3.18 9a14.57 14.57 0 0 1 3.74 5.59Zm-3.95-4.25c-.02.1-.06.2-.1.3L.15 16.73c-.28.62-.15 1.35.32 1.84L4.76 23a8.66 8.66 0 0 0 .87-8.65c-.76-1.8-1.9-3.2-2.66-3.99Z"/><path fill="#A079FF" d="m5.75 23.51.23.02c.81.03 2.18.1 3.3.3.9.17 2.7.67 4.17 1.1 1.13.33 2.29-.57 2.45-1.73.12-.85.34-1.81.76-2.69h-.01a9.25 9.25 0 0 0-2.52-4 5.52 5.52 0 0 0-2.9-1.31c-1.6-.23-3.07.2-4 .47a9.65 9.65 0 0 1-1.48 7.84Z"/><path fill="#A079FF" d="M17.37 19.31c.93-1.4 1.59-2.49 1.94-3.08a.84.84 0 0 0-.07-.93 18.12 18.12 0 0 1-2.13-3.5c-.57-1.38-.66-3.52-.66-4.57 0-.4-.13-.78-.37-1.1l-3.34-4.22c0 .19-.04.38-.07.56a7.47 7.47 0 0 1-.56 1.57l-.47.95-.32.65a10.93 10.93 0 0 0-1.18 3.74 9.17 9.17 0 0 0 .85 4.67l.4.05c1.15.16 2.36.6 3.47 1.56.95.83 1.81 2 2.51 3.65Z"/><path fill="#fff" d="M147.75 22V4.77h8.52c5.79 0 9.63 3.36 9.63 8.61 0 5.26-3.84 8.62-9.63 8.62h-8.52Zm2.26-2h6.26c4.47 0 7.3-2.6 7.3-6.62 0-4.03-2.83-6.62-7.32-6.62H150v13.25Zm24.37-10.8c3.98 0 7.03 2.67 7.03 6.54 0 3.84-3.05 6.52-7.03 6.52-4.03 0-7.06-2.68-7.06-6.52 0-3.87 3.03-6.53 7.06-6.53Zm0 11.2c2.78 0 4.94-1.83 4.94-4.66 0-2.86-2.16-4.66-4.94-4.66-2.83 0-5 1.8-5 4.66 0 2.83 2.17 4.65 5 4.65Zm8.6-4.66c0-3.84 3.05-6.53 7.13-6.53 3.38 0 5.68 1.94 6.43 4.2l-1.78.93c-.5-1.82-2.23-3.28-4.68-3.28-2.85 0-5.04 1.82-5.04 4.68 0 2.83 2.19 4.65 5.04 4.65 2.45 0 4.18-1.46 4.68-3.29l1.75.99c-.74 2.25-3.02 4.17-6.4 4.17-4.08 0-7.13-2.68-7.13-6.52Zm14.28 3.31 1.58-1.32c1.13 1.87 3.05 2.71 5.47 2.71 2.19 0 3.87-.62 3.87-2.04 0-1.49-1.49-1.54-4.56-1.87-3.12-.36-5.6-.87-5.6-3.43 0-2.3 2.33-3.9 5.7-3.9 3.02 0 5.28 1.2 6.28 2.82l-1.46 1.27c-.94-1.49-2.69-2.28-4.9-2.28-2.23 0-3.52.74-3.52 1.9 0 1.24 1.27 1.39 3.95 1.7 3.37.38 6.25.67 6.25 3.62 0 2.64-2.86 4.03-5.98 4.03-3.17 0-5.86-1.1-7.08-3.21ZM37.73 4.5c5.88 0 10.17 3.77 10.17 8.88 0 5.12-4.3 8.88-10.17 8.88-5.9 0-10.18-3.76-10.18-8.88 0-5.1 4.27-8.88 10.18-8.88Zm0 3.1c-3.87 0-6.55 2.3-6.55 5.78 0 3.48 2.68 5.79 6.55 5.79 3.86 0 6.55-2.3 6.55-5.79 0-3.48-2.69-5.78-6.55-5.78ZM53.1 20.49V22h-3.36V4.77h3.36v6.14c.87-.96 2.52-1.77 4.73-1.77 4.32 0 6.86 2.97 6.86 6.55 0 3.6-2.54 6.57-6.86 6.57-2.2 0-3.86-.81-4.73-1.77Zm-.14-4.87v.16c0 2.14 1.87 3.75 4.27 3.75 2.28 0 4.25-1.37 4.25-3.84 0-2.45-1.97-3.82-4.25-3.82-2.4 0-4.27 1.59-4.27 3.75Zm12.22 4 1.92-2.2a7.17 7.17 0 0 0 5.5 2.23c1.84 0 3.07-.41 3.07-1.35 0-.96-1.16-.96-4.06-1.32-3.17-.4-5.69-.96-5.69-3.64 0-2.5 2.4-4.2 6.24-4.2 3 0 5.35 1.03 6.53 2.37l-1.92 2.04c-1.06-1.15-2.74-1.82-4.78-1.82-1.87 0-2.78.5-2.78 1.25 0 .79.89.88 3.62 1.22 3.32.38 6.17.86 6.17 3.77 0 2.88-2.95 4.3-6.55 4.3-3.05 0-5.83-.97-7.27-2.65ZM80.56 7.89V4.77H84v3.12h-3.43Zm3.4 1.49V22h-3.35V9.38h3.36Zm13.45 11.11c-.86.96-2.52 1.77-4.73 1.77-4.32 0-6.86-2.97-6.86-6.57 0-3.58 2.54-6.55 6.86-6.55 2.21 0 3.87.81 4.73 1.77V4.77h3.36V22h-3.36v-1.51Zm.14-4.87c0-2.16-1.87-3.75-4.27-3.75-2.28 0-4.25 1.37-4.25 3.82 0 2.47 1.97 3.84 4.25 3.84 2.4 0 4.27-1.61 4.27-3.75v-.16Zm5.77-7.73V4.77h3.43v3.12h-3.43Zm3.4 1.49V22h-3.35V9.38h3.36Zm7.11 12.88c-3.02 0-5.3-1.36-5.3-3.9 0-2.34 1.99-3.63 5.01-3.94l5.26-.56v-.1c0-1.05-.94-1.91-3.14-1.91-1.85 0-3.36.81-3.8 1.92l-2.9-.99c.8-2.2 3.58-3.64 6.82-3.64 3.96 0 6.26 1.6 6.26 4.68v4.96c0 .7.31 1.01 1.75.7V22c-2.76.55-4.13-.34-4.65-1.56a7.8 7.8 0 0 1-5.3 1.82Zm4.97-5.13v-.87l-4.75.53c-1.49.17-2.26.53-2.26 1.47 0 .96.94 1.44 2.5 1.44 2.06 0 4.51-.9 4.51-2.57Zm6.41 4.87V9.38h3.36v1.58a6.04 6.04 0 0 1 4.6-1.82c3.42 0 5.5 2.32 5.5 5.83V22h-3.36v-6.24c0-2.16-1.08-3.6-3.24-3.6-2.25 0-3.5 1.4-3.5 3.65V22h-3.36Z"/></svg>