<svg fill="none" xmlns="http://www.w3.org/2000/svg" viewBox="0 0 211 28">
  <g fill="#fff">
    <path d="M7 14.6a12 12 0 0 1 2.8-.6 10 10 0 0 1 .5-8.8l.4-.7a32.9 32.9 0 0 0 .9-2.3v-1c-.1-.4-.3-.7-.7-1.1-.6-.2-1.1 0-1.6.3L4.2 5.1c-.3.2-.5.6-.6 1l-.4 3a14.6 14.6 0 0 1 3.7 5.5zm-4-4.2-.1.3-2.8 6c-.2.7-.1 1.4.4 1.9L4.8 23a8.7 8.7 0 0 0 .8-8.7c-.7-1.8-1.9-3.2-2.6-4z"/>
    <path d="M5.8 23.5H6a23.8 23.8 0 0 1 7.4 1.4c1.2.4 2.3-.5 2.5-1.7a7 7 0 0 1 .8-2.7c-.8-2-1.6-3.2-2.6-4a5 5 0 0 0-2.9-1.3c-1.6-.2-3 .2-4 .5.6 2.3.4 5-1.4 7.8z"/>
    <path d="m17.4 19.3 2-3c0-.4 0-.7-.2-1a18 18 0 0 1-2-3.5c-.7-1.4-.7-3.5-.8-4.6 0-.4 0-.7-.3-1l-3.4-4.3v.6L12 4l-.5 1-.3.6A11 11 0 0 0 10 9.4c0 1.3 0 2.8.9 4.7h.4c1.1.2 2.3.6 3.5 1.6 1 .8 1.8 2 2.5 3.6zM147.8 22V4.8h8.5c5.8 0 9.6 3.3 9.6 8.6 0 5.2-3.8 8.6-9.6 8.6zm2.2-2h6.3c4.4 0 7.3-2.6 7.3-6.6 0-4-2.9-6.6-7.4-6.6H150zm24.4-10.8c4 0 7 2.7 7 6.5 0 3.9-3 6.6-7 6.6s-7-2.7-7-6.6c0-3.8 3-6.5 7-6.5zm0 11.2c2.8 0 5-1.8 5-4.7 0-2.8-2.2-4.6-5-4.6-2.9 0-5 1.8-5 4.6 0 2.9 2.1 4.7 5 4.7zm8.6-4.7c0-3.8 3-6.5 7.1-6.5 3.4 0 5.7 2 6.4 4.2l-1.7 1c-.5-1.9-2.3-3.3-4.7-3.3-2.9 0-5 1.8-5 4.6 0 2.9 2.1 4.7 5 4.7 2.4 0 4.2-1.5 4.7-3.3l1.7 1c-.7 2.2-3 4.2-6.4 4.2-4 0-7.1-2.7-7.1-6.6zm14.3 3.3 1.5-1.3c1.2 1.9 3 2.7 5.5 2.7 2.2 0 3.9-.6 3.9-2 0-1.5-1.5-1.5-4.6-1.9-3.1-.3-5.6-.8-5.6-3.4 0-2.3 2.4-3.9 5.7-3.9 3 0 5.3 1.2 6.3 2.8l-1.5 1.3c-.9-1.5-2.6-2.3-4.9-2.3-2.2 0-3.5.8-3.5 1.9 0 1.3 1.3 1.4 4 1.7 3.3.4 6.2.7 6.2 3.6 0 2.7-2.8 4-6 4-3.1 0-5.8-1-7-3.2zM37.7 4.5c6 0 10.2 3.8 10.2 8.9 0 5.1-4.3 8.9-10.2 8.9-5.9 0-10.1-3.8-10.1-9 0-5 4.2-8.8 10.1-8.8zm0 3.1c-3.8 0-6.5 2.3-6.5 5.8s2.7 5.8 6.5 5.8 6.6-2.3 6.6-5.8-2.7-5.8-6.6-5.8zm15.4 12.9V22h-3.4V4.8h3.4v6.1c.9-1 2.5-1.8 4.7-1.8 4.3 0 6.9 3 6.9 6.6 0 3.6-2.6 6.6-6.9 6.6-2.2 0-3.8-.9-4.7-1.8zm-.1-4.9v.2c0 2.1 1.8 3.7 4.2 3.7 2.3 0 4.3-1.3 4.3-3.8s-2-3.8-4.3-3.8c-2.4 0-4.2 1.6-4.2 3.7zm12.2 4 1.9-2.2a7.2 7.2 0 0 0 5.5 2.2c1.8 0 3-.4 3-1.3 0-1-1-1-4-1.3-3.2-.4-5.7-1-5.7-3.7 0-2.5 2.4-4.2 6.3-4.2 3 0 5.3 1 6.5 2.4l-2 2a6.3 6.3 0 0 0-4.7-1.8c-1.9 0-2.8.5-2.8 1.3s.9.9 3.6 1.2c3.3.4 6.2.9 6.2 3.8 0 2.8-3 4.3-6.6 4.3-3 0-5.8-1-7.2-2.7zM80.6 7.9V4.8H84v3zM84 9.4V22h-3.4V9.4zm13.4 11.1c-.9 1-2.5 1.8-4.7 1.8-4.3 0-6.9-3-6.9-6.6 0-3.6 2.6-6.6 6.9-6.6 2.2 0 3.8.9 4.7 1.8V4.8h3.4V22h-3.4zm.2-4.9c0-2.1-2-3.7-4.3-3.7S89 13.2 89 15.7s2 3.8 4.3 3.8c2.4 0 4.3-1.6 4.3-3.7zm5.7-7.7V4.8h3.5v3zm3.4 1.5V22h-3.3V9.4zm7.1 12.9c-3 0-5.3-1.4-5.3-4 0-2.3 2-3.6 5-3.9l5.3-.5v-.1c0-1-1-2-3.1-2-1.9 0-3.4.9-3.8 2l-3-1c.9-2.2 3.6-3.7 6.9-3.7 4 0 6.2 1.6 6.2 4.7v5c0 .7.4 1 1.8.7V22c-2.8.6-4.1-.3-4.7-1.6a7.5 7.5 0 0 1-5.3 1.9zm5-5.2v-.8l-4.8.5c-1.4.2-2.2.5-2.2 1.5s1 1.4 2.5 1.4c2 0 4.5-.9 4.5-2.6zm6.4 4.9V9.4h3.4V11a6 6 0 0 1 4.6-1.9c3.4 0 5.5 2.4 5.5 5.9v7h-3.4v-6.2c0-2.2-1-3.6-3.2-3.6-2.3 0-3.5 1.4-3.5 3.6V22z"/>
  </g>
</svg>